:SAMPLES-PER-SECOND 30
:FULLY-SPECIFIED
:DEGREES
169
root  4.47207 19.0942 -27.2559 -120.758 1.61484 -179.176
RightUpLeg  -39.0266 -1.95981 2.59787
RightLeg  89.9921 15.9507 -2.00667
RightFoot  -3.59917 0.238859 -2.79355
RightToes  -5.82073e-011 -3.18055e-015 -2.98177e-016
Spine  31.3841 -1.91452 9.93062
Spine1  -9.11848 0.479773 -1.10282
HEad  -33.6789 2.15842 4.05808
LeftShoulder1  -3.88251e-019 9.70628e-020 -3.87848e-018
LeftArm  7.22812 1.47964 -68.2825
LeftForeArm  7.26516 -29.1411 6.55617
LeftHand  -10.7205 -13.4132 61.3757
RightShoulder  3.80159 9.5697 16.8903
RightArm  2.54932 14.0696 69.0541
RightForeArm  8.93949 9.61101 -5.42704
RightHand  -12.1314 10.185 -76.447
LeftUpLeg  -57.0614 -0.999672 -10.3033
LeftLeg  104.219 -18.785 16.8796
LeftFoot  -6.10525 1.48295 -24.1796
LeftToes  -3.44176e-011 4.05998e-011 -5.21293e-012
170
root  4.32428 19.2442 -27.6896 -121.336 1.56233 -176.494
RightUpLeg  -42.7414 -0.279738 3.99274
RightLeg  95.6573 16.2538 -3.22487
RightFoot  -4.99508 0.30959 -4.19704
RightToes  -5.82073e-011 -3.18055e-015 -2.98177e-016
Spine  33.4967 -1.26036 11.0104
Spine1  -10.6305 1.50379 0.656694
HEad  -33.4941 2.65721 3.12736
LeftShoulder1  -3.88251e-019 9.70628e-020 -3.87848e-018
LeftArm  3.15699 -3.27761 -65.9537
LeftForeArm  5.36978 -29.6266 6.58005
LeftHand  -10.188 -13.0072 59.9508
RightShoulder  3.7489 9.82014 16.1985
RightArm  2.46004 13.0251 69.3822
RightForeArm  10.4498 9.53352 -5.21911
RightHand  -12.3249 10.3311 -76.8161
LeftUpLeg  -54.9551 1.10388 -8.61311
LeftLeg  102.938 -18.201 16.3278
LeftFoot  -6.33478 1.47077 -24.8001
LeftToes  -3.44176e-011 4.05998e-011 -5.21293e-012
171
root  4.28405 19.3144 -28.0684 -121.524 2.02336 -174.386
RightUpLeg  -47.6841 1.19987 5.15611
RightLeg  102.556 16.7982 -4.1083
RightFoot  -8.02908 0.284623 -5.83951
RightToes  -5.82073e-011 -3.18055e-015 -2.98177e-016
Spine  35.1187 -0.210372 10.2585
Spine1  -11.3919 2.3345 3.32408
HEad  -33.8233 3.69953 2.58541
LeftShoulder1  -3.88251e-019 9.70628e-020 -3.87848e-018
LeftArm  -1.09766 -9.00374 -62.8218
LeftForeArm  4.46664 -28.8762 6.27081
LeftHand  -9.87996 -12.5996 59.567
RightShoulder  3.50505 9.89257 14.6523
RightArm  1.79089 11.8538 70.761
RightForeArm  11.7349 9.67941 -5.62475
RightHand  -12.4993 10.4252 -77.2737
LeftUpLeg  -53.2276 3.10373 -7.53794
LeftLeg  101.964 -17.7104 15.6901
LeftFoot  -7.45281 1.25079 -25.3679
LeftToes  -3.44176e-011 4.05998e-011 -5.21293e-012
172
root  4.23353 19.3152 -28.4479 -121.582 2.62666 -172.873
RightUpLeg  -53.1403 2.12817 6.12549
RightLeg  109.651 17.3326 -4.24527
RightFoot  -12.0325 0.109205 -6.7907
RightToes  -5.82073e-011 -3.18055e-015 -2.98177e-016
Spine  36.2243 0.499641 9.3833
Spine1  -11.262 2.78013 5.1104
HEad  -34.4003 4.7765 2.62227
LeftShoulder1  -3.88251e-019 9.70628e-020 -3.87848e-018
LeftArm  -5.65959 -15.7856 -59.1125
LeftForeArm  3.39917 -26.3489 4.878
LeftHand  -9.08767 -11.8791 57.48
RightShoulder  3.13471 9.6161 12.8295
RightArm  0.855409 10.8902 72.75
RightForeArm  12.7414 9.91148 -6.38745
RightHand  -12.7026 10.5247 -77.8337
LeftUpLeg  -51.5499 4.59698 -7.09645
LeftLeg  100.98 -17.3338 15.3412
LeftFoot  -8.55106 1.01067 -25.6077
LeftToes  -3.44176e-011 4.05998e-011 -5.21293e-012
173
root  4.11224 19.325 -28.9092 -122.209 2.50938 -171.647
RightUpLeg  -57.9229 2.08879 7.8368
RightLeg  115.648 17.9085 -4.44198
RightFoot  -15.733 -0.100909 -6.85087
RightToes  -5.82073e-011 -3.18055e-015 -2.98177e-016
Spine  37.7657 0.374613 9.67725
Spine1  -11.343 2.83875 5.97207
HEad  -34.2887 5.40195 2.81418
LeftShoulder1  -3.88251e-019 9.70628e-020 -3.87848e-018
LeftArm  -10.607 -22.9859 -56.0894
LeftForeArm  1.94415 -21.0562 2.02999
LeftHand  -7.61867 -10.5784 52.972
RightShoulder  2.98075 9.36009 12.2406
RightArm  0.630923 10.395 74.036
RightForeArm  13.7422 9.96794 -6.58537
RightHand  -12.8891 10.6455 -78.2342
LeftUpLeg  -49.2508 5.3911 -6.33134
LeftLeg  99.6348 -16.9876 15.3929
LeftFoot  -8.82836 0.928345 -25.1562
LeftToes  -3.44176e-011 4.05998e-011 -5.21293e-012
